<svg xmlns:dc="http://purl.org/dc/elements/1.1/" xmlns:cc="http://creativecommons.org/ns#" xmlns:rdf="http://www.w3.org/1999/02/22-rdf-syntax-ns#" xmlns:svg="http://www.w3.org/2000/svg" xmlns="http://www.w3.org/2000/svg" xmlns:sodipodi="http://sodipodi.sourceforge.net/DTD/sodipodi-0.dtd" xmlns:inkscape="http://www.inkscape.org/namespaces/inkscape" xml:space="preserve" version="1.1" style="shape-rendering:geometricPrecision;text-rendering:geometricPrecision;image-rendering:optimizeQuality;" viewBox="0 0 799 1147.5" x="0px" y="0px" fill-rule="evenodd" clip-rule="evenodd"><defs><style type="text/css">
   
    .fil0 {fill:black}
   
  </style></defs><path style="" d="M 247 0 C 237 0 231 4 225 9 C 221 13 215 23 215 30 C 215 67 206 107 250 111 L 250 280 L 33 280 C -17 280 -3 373 27 405 C 46 426 75 441 106 441 L 106 804 C 74 804 51 817 30 837 C 9 858 1 888 1 918 L 799 918 C 799 882 793 859 767 833 C 753 819 724 804 695 804 L 695 441 C 753 440 799 394 799 338 C 799 318 804 280 769 280 L 551 280 L 551 111 C 593 107 587 68 587 38 C 587 26 583 17 577 11 C 573 5 563 0 553 0 L 247 0 z M 226 441 L 575 441 L 575 755 L 476 755 C 544.18278 684.41475 466.62921 651.0436 457 614 C 453 601 453 559 430 597 C 426 604 424 610 422 618 C 417 636 417 653 421 670 C 408 667 393 650 393 631 C 393 605 411 597 414 571 C 415 556 415 551 413 536 C 411 525 408 512 401 507 C 392 513 397 528 382 555 C 367 583 310 616 310 685 C 310 717 322 739 341 755 L 226 755 L 226 441 z " fill="#000000" stroke="none"/><text x="0" y="933" fill="#000000" font-size="5px" font-weight="bold" font-family="'Helvetica Neue', Helvetica, Arial-Unicode, Arial, Sans-serif">Created by alrigel</text><text x="0" y="938" fill="#000000" font-size="5px" font-weight="bold" font-family="'Helvetica Neue', Helvetica, Arial-Unicode, Arial, Sans-serif">from the Noun Project</text></svg>