<?xml version="1.0"?>
<svg xmlns="http://www.w3.org/2000/svg" xmlns:xlink="http://www.w3.org/1999/xlink" version="1.1" id="Capa_1" x="0px" y="0px" width="512px" height="512px" viewBox="0 0 45.768 45.768" style="enable-background:new 0 0 45.768 45.768;" xml:space="preserve" class=""><g><g>
	<path d="M42.748,16.753v-1.214c0-0.858-0.695-1.554-1.554-1.554H30.354V5.448h0.029c0.963,0,1.742-0.78,1.742-1.741V1.741   C32.125,0.78,31.346,0,30.383,0H15.384c-0.962,0-1.741,0.78-1.741,1.741v1.966c0,0.961,0.779,1.741,1.741,1.741h0.03v8.537H4.573   c-0.858,0-1.554,0.696-1.554,1.554v1.214c0,2.857,2.314,5.176,5.176,5.194V40.17c-2.861,0.018-5.176,2.336-5.176,5.194v0.403   h39.729v-0.403c0-2.858-2.313-5.177-5.176-5.194V21.947C40.434,21.929,42.748,19.61,42.748,16.753z M31.625,37.686h-5.162   c1.056-0.727,1.489-1.799,1.489-2.869c0-2.039-2.21-2.151-2.534-5.43c-0.031-0.318-0.435-0.438-0.623-0.181   c-0.593,0.813-1.348,2.343-0.78,4.396c0,0-2.819-1.031-0.863-4.021c0.939-1.438,0.045-4.266-0.268-4.266s-0.047,1.984-1.697,3.504   c-3.613,3.324-3.271,7.277-1.166,8.867h-5.877V21.93h17.48V37.686z" data-original="#000000" class="active-path" data-old_color="#824E4E" fill="#FFFFFF"/>
</g></g> </svg>
