<?xml version="1.0"?>
<svg xmlns="http://www.w3.org/2000/svg" xmlns:xlink="http://www.w3.org/1999/xlink" version="1.1" id="Layer_1" x="0px" y="0px" viewBox="0 0 512 512" style="enable-background:new 0 0 512 512;" xml:space="preserve" width="512px" height="512px" class=""><g><g>
	<g>
		<g>
			<path d="M512,213.333v-64c0-11.782-9.551-21.333-21.333-21.333H21.333C9.551,128,0,137.551,0,149.333v64     c0,11.782,9.551,21.333,21.333,21.333v170.667C9.551,405.333,0,414.885,0,426.667v64C0,502.449,9.551,512,21.333,512H128     c11.782,0,21.333-9.551,21.333-21.333V448h213.333v42.667c0,11.782,9.551,21.333,21.333,21.333h106.667     c11.782,0,21.333-9.551,21.333-21.333v-64c0-11.782-9.551-21.333-21.333-21.333V234.667C502.449,234.667,512,225.115,512,213.333     z M106.667,469.333h-64V448h64V469.333z M384,405.333h-67.649c7.939-22.511,2.91-48.573-15.096-66.579l-29.327-32.946     c-8.483-9.515-23.364-9.515-31.847,0l-30.165,33.835c-17.397,17.361-22.26,43.235-14.284,65.691H128V234.667h256V405.333z      M240.924,368.924l15.068-16.876l14.254,15.988c9.169,9.218,9.169,22.719,0.839,31.049s-21.831,8.33-30.161,0     S232.594,377.254,240.924,368.924z M469.333,469.333h-64V448h64V469.333z M426.667,405.333v-192     c0-11.782-9.551-21.333-21.333-21.333H106.667c-11.782,0-21.333,9.551-21.333,21.333v192H64v-192     C64,201.551,54.449,192,42.667,192v-21.333h426.667V192C457.551,192,448,201.551,448,213.333v192H426.667z" data-original="#000000" class="active-path" data-old_color="#AAA6A6" fill="#FFFFFF"/>
			<path d="M341.333,64C329.551,64,320,73.551,320,85.333c0,11.782,9.551,21.333,21.333,21.333h64     c11.782,0,21.333-9.551,21.333-21.333c0-11.782-9.551-21.333-21.333-21.333H341.333z" data-original="#000000" class="active-path" data-old_color="#AAA6A6" fill="#FFFFFF"/>
			<path d="M320,42.667h64c11.782,0,21.333-9.551,21.333-21.333C405.333,9.551,395.782,0,384,0h-64     c-11.782,0-21.333,9.551-21.333,21.333C298.667,33.115,308.218,42.667,320,42.667z" data-original="#000000" class="active-path" data-old_color="#AAA6A6" fill="#FFFFFF"/>
			<path d="M106.667,106.667c11.782,0,21.333-9.551,21.333-21.333v-64C128,9.551,118.449,0,106.667,0     C94.885,0,85.333,9.551,85.333,21.333v64C85.333,97.115,94.885,106.667,106.667,106.667z" data-original="#000000" class="active-path" data-old_color="#AAA6A6" fill="#FFFFFF"/>
			<path d="M170.667,106.667c11.782,0,21.333-9.551,21.333-21.333v-64C192,9.551,182.449,0,170.667,0     c-11.782,0-21.333,9.551-21.333,21.333v64C149.333,97.115,158.885,106.667,170.667,106.667z" data-original="#000000" class="active-path" data-old_color="#AAA6A6" fill="#FFFFFF"/>
		</g>
	</g>
</g></g> </svg>
